<svg xmlns="http://www.w3.org/2000/svg" version="1.1" viewBox="1.6800000667572021 1.419396162033081 449.6600036621094 405.0810852050781" width="453.00" height="408.00">
<path fill="#000000" d="&#10;  M 160.49 45.22&#10;  C 161.79 44.14 162.53 42.70 163.89 41.63&#10;  C 169.09 37.52 174.88 37.05 180.64 34.78&#10;  Q 184.90 33.11 190.02 31.80&#10;  Q 198.02 29.76 202.87 29.05&#10;  Q 217.51 26.93 234.41 27.61&#10;  Q 236.23 27.68 238.01 28.10&#10;  C 239.63 28.48 241.40 28.23 243.09 28.47&#10;  Q 254.25 30.02 263.22 32.78&#10;  Q 268.60 34.43 273.79 35.66&#10;  Q 277.02 36.42 279.54 38.02&#10;  Q 283.90 40.79 289.05 43.18&#10;  A 1.47 1.47 0.0 0 0 291.03 42.41&#10;  C 292.32 39.29 294.38 36.87 295.68 33.61&#10;  Q 298.44 26.65 303.38 22.12&#10;  C 306.07 19.65 309.20 18.19 311.81 15.37&#10;  Q 315.48 11.40 319.88 9.44&#10;  C 324.30 7.48 328.60 5.11 333.36 3.99&#10;  Q 344.54 1.38 354.90 1.42&#10;  Q 357.56 1.43 359.99 2.12&#10;  C 362.36 2.79 364.74 2.42 367.29 3.06&#10;  Q 377.42 5.63 385.44 9.65&#10;  C 388.51 11.19 393.43 15.01 397.33 17.65&#10;  C 404.71 22.64 409.40 30.23 414.18 37.70&#10;  Q 416.42 41.19 417.42 44.10&#10;  C 418.88 48.38 420.96 52.25 421.46 56.84&#10;  C 421.77 59.60 422.61 62.30 422.53 65.05&#10;  Q 422.40 69.34 423.04 73.30&#10;  C 423.29 74.86 422.62 76.39 422.48 77.99&#10;  C 421.20 91.99 415.92 104.87 406.58 115.13&#10;  C 403.75 118.24 401.52 121.60 397.95 124.12&#10;  Q 394.25 126.74 390.28 129.59&#10;  C 386.42 132.36 382.65 133.82 378.11 134.54&#10;  Q 377.29 134.67 377.29 135.50&#10;  L 377.42 152.43&#10;  A 0.82 0.82 0.0 0 0 378.38 153.24&#10;  Q 381.01 152.79 383.34 152.77&#10;  Q 416.99 152.60 449.76 152.79&#10;  A 1.53 1.52 0.0 0 1 451.28 154.30&#10;  L 451.34 169.93&#10;  Q 451.34 170.65 450.63 170.65&#10;  Q 436.03 170.63 420.01 170.94&#10;  Q 418.63 170.96 417.24 171.01&#10;  Q 399.25 171.57 379.73 171.33&#10;  A 1.05 1.04 -6.8 0 0 378.70 172.63&#10;  Q 381.88 185.13 384.25 196.83&#10;  Q 385.03 200.68 385.96 203.75&#10;  C 386.88 206.83 387.76 209.92 388.37 213.08&#10;  Q 390.70 225.14 393.40 235.42&#10;  C 394.01 237.76 395.08 239.87 395.51 242.34&#10;  Q 396.81 249.80 399.51 258.51&#10;  Q 401.95 266.36 401.84 274.07&#10;  A 2.06 2.06 0.0 0 1 400.97 275.71&#10;  Q 393.89 280.72 387.40 286.14&#10;  Q 385.78 287.49 383.80 288.47&#10;  Q 380.65 290.02 379.81 290.86&#10;  Q 370.73 299.81 359.86 305.87&#10;  Q 358.87 306.42 357.04 308.40&#10;  Q 355.71 309.83 354.26 310.92&#10;  C 349.92 314.21 345.53 317.33 341.36 320.88&#10;  C 337.04 324.54 331.92 327.36 327.27 330.91&#10;  C 324.50 333.03 322.69 335.99 319.67 337.71&#10;  C 316.47 339.53 313.47 341.27 310.74 343.80&#10;  Q 303.00 350.98 295.30 355.32&#10;  Q 292.79 356.73 290.37 359.14&#10;  Q 287.28 362.21 283.40 365.14&#10;  C 279.51 368.07 276.02 371.68 271.64 374.12&#10;  C 268.65 375.78 265.09 378.31 262.60 380.67&#10;  Q 255.82 387.09 248.49 391.31&#10;  C 245.18 393.22 243.33 396.29 240.23 398.39&#10;  Q 235.84 401.36 231.57 404.33&#10;  C 225.71 408.40 220.12 406.27 215.46 401.87&#10;  Q 205.26 392.23 191.86 383.29&#10;  Q 189.48 381.70 187.31 379.77&#10;  C 185.27 377.96 183.54 375.87 181.25 374.41&#10;  C 178.43 372.62 174.82 371.14 172.37 368.88&#10;  Q 168.31 365.15 164.35 361.67&#10;  C 161.12 358.83 157.07 357.56 153.83 354.77&#10;  Q 143.50 345.85 136.86 341.26&#10;  Q 131.61 337.62 127.73 334.37&#10;  Q 125.23 332.28 122.63 330.33&#10;  Q 112.90 323.04 102.93 316.08&#10;  Q 100.64 314.48 98.68 312.30&#10;  C 94.44 307.57 88.34 306.07 83.89 301.52&#10;  C 81.45 299.02 78.67 297.02 76.09 294.65&#10;  C 73.13 291.94 69.04 291.17 66.39 288.22&#10;  C 64.68 286.30 62.90 284.31 60.78 282.83&#10;  Q 56.06 279.54 50.93 276.18&#10;  Q 48.95 274.88 49.23 272.24&#10;  Q 49.78 267.06 51.01 262.73&#10;  Q 53.56 253.76 55.93 243.65&#10;  C 56.90 239.50 58.47 235.58 59.32 231.42&#10;  Q 60.72 224.59 62.68 218.10&#10;  C 64.04 213.59 64.28 208.79 65.51 204.28&#10;  C 66.83 199.44 68.05 194.54 68.88 189.54&#10;  Q 70.32 180.75 72.25 172.10&#10;  A 0.59 0.59 0.0 0 0 71.67 171.38&#10;  Q 42.83 171.32 15.89 171.37&#10;  C 11.32 171.38 6.77 170.58 2.28 170.55&#10;  A 0.60 0.60 0.0 0 1 1.68 169.95&#10;  L 1.72 154.33&#10;  A 1.09 1.09 0.0 0 1 2.67 153.26&#10;  C 4.04 153.09 5.43 152.68 6.77 152.68&#10;  Q 39.02 152.67 71.56 152.61&#10;  A 1.06 1.05 86.6 0 0 72.60 151.43&#10;  Q 72.18 147.90 73.07 144.58&#10;  C 73.68 142.30 73.57 140.05 73.52 137.74&#10;  A 1.03 1.00 -70.1 0 0 73.19 137.01&#10;  Q 70.72 134.71 68.20 133.48&#10;  C 60.32 129.60 53.99 123.99 47.80 118.16&#10;  C 42.85 113.48 39.62 107.37 36.23 101.43&#10;  Q 32.89 95.57 31.59 89.29&#10;  Q 30.94 86.11 30.09 82.94&#10;  Q 29.38 80.25 29.43 77.47&#10;  C 29.55 71.70 29.15 66.25 30.09 60.45&#10;  Q 31.99 48.71 37.47 38.61&#10;  Q 41.95 30.37 46.56 24.89&#10;  Q 49.19 21.77 53.00 19.60&#10;  C 55.37 18.24 56.71 16.60 58.29 14.52&#10;  C 60.89 11.09 68.24 8.01 72.58 6.20&#10;  C 78.06 3.91 84.39 3.14 90.30 2.12&#10;  Q 97.92 0.82 105.10 1.98&#10;  C 108.34 2.50 111.47 2.44 114.63 3.29&#10;  Q 130.92 7.68 143.79 18.72&#10;  Q 148.52 22.77 151.60 27.38&#10;  C 155.31 32.93 158.84 38.53 159.87 44.99&#10;  A 0.38 0.38 0.0 0 0 160.49 45.22&#10;  Z&#10;  M 141.26 67.48&#10;  Q 141.38 63.68 142.04 59.99&#10;  C 142.43 57.83 142.06 55.97 142.28 53.90&#10;  Q 142.52 51.64 141.96 49.41&#10;  C 140.87 45.04 139.95 40.09 136.15 37.30&#10;  Q 133.91 35.66 131.98 33.57&#10;  Q 127.38 28.58 119.44 24.26&#10;  Q 114.89 21.78 109.58 21.14&#10;  Q 100.25 20.01 92.20 20.66&#10;  Q 85.87 21.17 79.83 23.59&#10;  Q 75.05 25.51 70.21 29.23&#10;  Q 65.01 33.23 60.02 36.71&#10;  C 58.50 37.77 57.27 41.29 56.11 43.20&#10;  Q 53.46 47.57 50.54 52.58&#10;  Q 48.76 55.66 48.02 59.58&#10;  Q 46.70 66.59 46.91 70.28&#10;  Q 47.11 73.72 47.39 77.26&#10;  C 48.06 85.51 52.38 93.18 56.73 99.77&#10;  Q 58.56 102.53 60.53 104.65&#10;  C 62.89 107.19 65.25 110.72 68.50 112.16&#10;  Q 73.76 114.50 79.98 115.80&#10;  Q 81.49 116.11 81.96 114.65&#10;  C 83.43 110.09 85.90 104.10 90.43 101.52&#10;  Q 95.68 98.53 101.34 95.59&#10;  C 104.87 93.76 107.50 93.56 111.50 93.57&#10;  Q 143.18 93.59 175.25 93.69&#10;  Q 180.21 93.71 182.92 94.87&#10;  Q 187.90 97.01 193.23 99.34&#10;  Q 196.98 100.99 198.87 103.28&#10;  Q 201.92 106.98 205.22 112.54&#10;  Q 208.26 117.65 209.51 122.46&#10;  Q 211.18 128.86 211.68 135.54&#10;  A 0.81 0.81 0.0 0 0 212.49 136.29&#10;  L 240.20 136.32&#10;  A 1.28 1.26 -83.0 0 0 241.43 135.35&#10;  Q 242.47 130.98 243.06 126.86&#10;  C 244.00 120.29 247.23 114.14 250.65 108.62&#10;  Q 252.14 106.22 256.03 102.70&#10;  Q 256.98 101.84 258.02 101.35&#10;  C 259.92 100.44 261.69 99.59 263.50 98.45&#10;  Q 271.60 93.36 282.64 93.47&#10;  Q 308.50 93.74 335.39 93.47&#10;  Q 341.62 93.40 345.82 94.57&#10;  Q 351.63 96.19 355.86 98.90&#10;  Q 362.63 103.26 368.19 113.41&#10;  Q 369.37 115.56 371.40 116.46&#10;  Q 371.94 116.71 372.52 116.54&#10;  Q 377.00 115.24 381.39 113.65&#10;  C 384.47 112.53 387.00 109.93 388.87 107.30&#10;  Q 391.78 103.23 395.65 99.96&#10;  Q 396.44 99.29 396.96 98.40&#10;  Q 400.38 92.47 402.82 85.32&#10;  Q 404.67 79.91 404.53 74.31&#10;  Q 404.39 68.59 404.03 63.20&#10;  C 403.49 55.09 399.34 47.16 394.72 40.73&#10;  C 392.79 38.05 390.01 36.79 387.87 34.35&#10;  Q 385.69 31.88 382.78 29.77&#10;  Q 371.48 21.60 358.07 20.62&#10;  Q 349.94 20.03 340.76 21.51&#10;  C 331.38 23.03 323.86 28.36 316.73 34.52&#10;  Q 313.05 37.70 311.48 40.96&#10;  Q 309.02 46.08 308.49 49.27&#10;  Q 308.29 50.48 308.42 54.26&#10;  C 308.53 57.46 309.42 60.40 310.20 63.45&#10;  C 311.06 66.78 309.59 69.54 306.82 71.52&#10;  C 304.83 72.94 302.35 74.80 300.09 72.49&#10;  Q 293.67 65.91 286.04 61.82&#10;  C 281.88 59.59 278.02 56.10 273.69 54.76&#10;  C 266.89 52.64 260.28 50.26 253.36 48.83&#10;  Q 238.85 45.85 224.86 45.58&#10;  Q 216.93 45.43 209.43 46.89&#10;  Q 201.31 48.46 192.70 50.23&#10;  C 182.52 52.31 171.24 56.71 163.70 63.73&#10;  Q 160.62 66.60 157.24 69.22&#10;  C 155.84 70.32 154.15 70.54 152.63 71.40&#10;  Q 150.99 72.32 149.29 71.93&#10;  Q 144.58 70.86 141.75 68.55&#10;  A 1.33 1.31 -69.9 0 1 141.26 67.48&#10;  Z&#10;  M 115.79 162.13&#10;  C 110.04 161.15 105.30 158.59 106.43 151.60&#10;  C 106.99 148.16 110.72 145.19 113.55 143.37&#10;  C 116.06 141.75 117.19 139.65 118.89 137.37&#10;  C 121.26 134.19 123.80 131.99 127.23 129.34&#10;  Q 132.72 125.09 136.87 119.10&#10;  Q 137.88 117.63 139.05 116.78&#10;  C 140.38 115.82 142.69 114.74 143.54 113.45&#10;  Q 144.21 112.43 142.99 112.44&#10;  Q 125.60 112.56 108.84 112.47&#10;  C 105.11 112.45 101.99 114.19 99.90 117.12&#10;  Q 97.19 120.92 94.80 124.83&#10;  C 93.56 126.87 92.30 129.57 92.32 132.00&#10;  Q 92.42 149.21 92.46 167.31&#10;  C 92.47 169.04 93.23 170.51 93.25 172.24&#10;  C 93.31 176.98 95.62 180.17 98.14 184.02&#10;  C 100.46 187.58 102.97 189.00 106.78 190.75&#10;  Q 111.08 192.73 113.86 189.01&#10;  Q 116.71 185.20 119.13 181.54&#10;  C 121.58 177.82 126.32 175.67 129.18 172.00&#10;  Q 131.44 169.10 133.63 165.95&#10;  Q 135.22 163.67 137.28 162.13&#10;  Q 144.00 157.12 150.54 148.52&#10;  C 154.31 143.54 160.39 140.80 163.75 135.39&#10;  C 167.38 129.53 169.69 126.77 177.24 127.56&#10;  C 182.32 128.09 184.38 132.12 184.59 136.70&#10;  C 184.74 139.75 184.64 142.74 181.89 144.72&#10;  Q 173.43 150.82 168.32 157.41&#10;  Q 166.44 159.83 163.57 161.89&#10;  Q 158.46 165.57 154.21 171.18&#10;  Q 152.06 174.03 148.84 176.86&#10;  Q 142.29 182.62 136.54 190.03&#10;  A 0.41 0.41 0.0 0 0 136.87 190.69&#10;  Q 153.06 190.57 171.19 190.64&#10;  C 174.01 190.65 176.56 190.05 179.31 189.56&#10;  C 181.79 189.12 184.39 187.70 185.63 185.52&#10;  C 187.63 181.98 190.47 178.50 191.75 174.73&#10;  Q 193.19 170.47 193.28 165.37&#10;  Q 193.52 151.29 193.38 137.09&#10;  Q 193.36 135.51 193.08 133.96&#10;  C 192.50 130.82 192.57 127.81 190.97 125.01&#10;  Q 188.58 120.83 185.48 117.27&#10;  C 181.92 113.19 177.24 112.42 171.97 112.19&#10;  Q 169.73 112.10 167.49 113.65&#10;  Q 164.73 115.55 163.16 117.17&#10;  Q 154.68 125.92 143.66 137.90&#10;  Q 139.83 142.07 135.91 145.06&#10;  Q 133.27 147.09 131.49 149.51&#10;  C 128.52 153.57 121.37 163.09 115.79 162.13&#10;  Z&#10;  M 290.97 190.52&#10;  Q 285.30 186.07 278.19 177.76&#10;  Q 275.70 174.84 275.41 172.43&#10;  C 274.84 167.65 276.87 163.59 281.51 162.15&#10;  C 287.84 160.19 294.51 166.76 297.28 171.87&#10;  C 298.20 173.58 299.77 174.91 301.45 175.83&#10;  Q 306.07 178.35 309.48 181.22&#10;  C 311.65 183.04 312.72 185.72 314.88 187.60&#10;  Q 319.12 191.32 324.86 191.35&#10;  C 330.44 191.37 336.81 192.04 342.03 190.21&#10;  C 345.89 188.87 349.31 186.69 351.89 183.19&#10;  C 355.33 178.55 357.17 174.38 357.37 168.78&#10;  C 357.54 164.25 358.36 159.95 358.46 155.51&#10;  Q 358.77 142.16 357.43 130.01&#10;  Q 356.65 122.94 351.30 118.15&#10;  C 346.24 113.63 341.21 112.30 334.04 112.32&#10;  Q 308.20 112.38 283.53 112.41&#10;  Q 278.42 112.42 270.87 115.02&#10;  C 264.86 117.08 263.44 122.07 261.46 127.44&#10;  Q 260.35 130.47 260.36 133.93&#10;  Q 260.44 149.96 260.42 167.19&#10;  C 260.41 174.61 264.76 181.30 270.35 186.00&#10;  Q 274.07 189.11 279.80 190.46&#10;  Q 285.99 191.90 290.83 191.39&#10;  Q 291.55 191.31 291.15 190.71&#10;  Q 291.08 190.60 290.97 190.52&#10;  Z&#10;  M 104.66 208.59&#10;  C 101.35 208.31 98.45 205.96 95.49 204.56&#10;  C 92.60 203.19 90.08 200.82 87.81 198.42&#10;  A 1.03 1.02 -61.9 0 0 86.05 198.96&#10;  Q 84.45 208.28 82.13 216.39&#10;  C 80.70 221.40 80.10 226.48 78.40 231.43&#10;  Q 76.53 236.85 75.28 243.62&#10;  C 74.48 247.98 72.03 252.06 71.60 256.92&#10;  C 71.32 260.10 70.05 262.91 69.23 265.96&#10;  Q 68.84 267.43 70.09 268.30&#10;  C 74.72 271.54 80.02 273.57 84.38 277.92&#10;  C 87.97 281.48 92.17 283.70 95.67 287.19&#10;  C 98.20 289.70 101.31 291.07 104.14 293.07&#10;  Q 109.93 297.16 115.59 302.20&#10;  Q 118.83 305.08 122.12 306.98&#10;  Q 127.82 310.27 132.99 315.12&#10;  C 137.57 319.42 142.95 322.49 148.11 325.95&#10;  Q 150.80 327.75 155.05 331.83&#10;  Q 159.50 336.11 165.56 339.67&#10;  C 168.55 341.43 170.51 344.25 173.43 346.15&#10;  Q 179.49 350.11 184.08 354.48&#10;  C 186.39 356.68 189.03 357.76 191.67 359.37&#10;  Q 196.55 362.35 201.67 367.35&#10;  Q 205.49 371.09 210.08 373.12&#10;  Q 212.68 374.28 214.51 376.07&#10;  Q 219.06 380.50 224.53 384.82&#10;  C 226.82 386.63 228.92 383.59 230.43 382.18&#10;  Q 233.70 379.14 239.02 375.39&#10;  Q 245.39 370.90 247.88 368.95&#10;  Q 252.60 365.25 257.15 361.78&#10;  C 259.71 359.83 261.20 357.17 264.12 355.63&#10;  Q 270.25 352.40 275.27 347.75&#10;  Q 277.17 345.99 278.92 344.77&#10;  C 281.81 342.76 283.81 340.30 287.02 338.66&#10;  Q 289.49 337.40 291.33 335.64&#10;  Q 297.86 329.41 305.82 324.87&#10;  C 310.43 322.24 313.84 318.47 318.21 315.39&#10;  C 323.04 312.00 326.19 307.01 331.68 304.56&#10;  Q 336.01 302.64 339.93 298.60&#10;  C 342.80 295.65 346.43 293.62 349.57 291.01&#10;  C 352.10 288.90 355.28 288.01 357.55 285.60&#10;  Q 359.54 283.48 362.22 281.52&#10;  Q 370.64 275.38 379.56 268.70&#10;  Q 380.54 267.97 381.11 266.98&#10;  C 382.43 264.70 380.67 259.20 379.89 256.52&#10;  Q 374.46 238.04 369.67 218.28&#10;  C 367.86 210.84 365.45 204.08 363.26 196.96&#10;  A 0.54 0.54 0.0 0 0 362.35 196.75&#10;  Q 360.23 198.99 358.15 201.74&#10;  C 355.66 205.02 349.17 207.19 345.55 208.22&#10;  Q 341.48 209.37 336.12 209.37&#10;  Q 310.24 209.35 282.33 209.37&#10;  C 280.34 209.37 278.53 208.70 276.54 208.54&#10;  C 271.84 208.15 266.07 205.71 262.74 203.41&#10;  Q 259.07 200.88 255.50 197.23&#10;  Q 254.03 195.73 252.29 194.32&#10;  C 248.27 191.06 247.65 186.14 245.85 181.55&#10;  C 242.70 173.48 241.82 164.25 242.57 155.69&#10;  A 1.05 1.05 0.0 0 0 241.52 154.55&#10;  L 212.55 154.53&#10;  A 0.97 0.97 0.0 0 0 211.58 155.48&#10;  Q 211.47 160.78 211.51 165.83&#10;  C 211.57 171.88 210.05 178.33 207.96 184.08&#10;  C 205.66 190.37 201.45 193.92 197.36 198.87&#10;  C 195.78 200.78 192.80 202.66 190.58 203.75&#10;  Q 186.58 205.70 182.78 207.43&#10;  C 179.99 208.69 177.21 208.51 174.28 208.91&#10;  Q 171.23 209.33 168.23 209.32&#10;  Q 141.49 209.32 111.79 209.36&#10;  C 109.33 209.37 107.09 208.79 104.66 208.59&#10;  Z"/>
<path fill="#000000" d="&#10;  M 88.99 52.43&#10;  C 83.66 55.17 81.25 61.88 79.46 67.61&#10;  Q 78.10 71.97 78.55 75.40&#10;  Q 79.41 81.92 82.53 85.48&#10;  Q 84.40 87.61 84.46 89.90&#10;  C 84.60 95.19 80.57 98.04 76.27 100.12&#10;  Q 75.78 100.36 75.29 100.11&#10;  Q 69.23 96.98 67.10 94.45&#10;  Q 62.12 88.55 60.92 80.51&#10;  Q 59.47 70.80 61.69 60.81&#10;  C 62.61 56.69 64.30 52.98 67.05 49.71&#10;  Q 69.97 46.23 72.32 42.63&#10;  C 74.19 39.76 78.16 37.16 81.59 36.07&#10;  C 85.36 34.88 88.68 33.56 92.75 33.40&#10;  Q 98.82 33.15 103.34 33.59&#10;  Q 107.40 33.98 115.22 37.16&#10;  Q 117.39 38.04 118.78 39.66&#10;  C 122.85 44.40 127.36 48.68 128.93 54.91&#10;  Q 129.51 57.23 130.01 59.85&#10;  Q 130.44 62.07 130.04 64.07&#10;  Q 129.57 66.47 129.49 68.85&#10;  A 1.76 1.75 0.8 0 1 127.73 70.55&#10;  L 115.74 70.49&#10;  A 1.62 1.62 0.0 0 1 114.17 69.21&#10;  C 113.02 63.71 110.53 55.56 105.05 52.79&#10;  Q 96.57 48.51 88.99 52.43&#10;  Z"/>
<path fill="#000000" d="&#10;  M 342.57 55.04&#10;  Q 339.60 58.18 341.17 62.41&#10;  C 343.30 68.12 338.47 68.59 335.32 71.22&#10;  C 330.92 74.91 326.41 70.03 324.07 66.77&#10;  C 321.07 62.59 320.34 57.12 322.82 52.49&#10;  C 325.51 47.46 327.74 43.34 332.30 39.38&#10;  Q 333.65 38.21 335.35 37.80&#10;  Q 339.96 36.68 343.96 35.19&#10;  Q 348.38 33.55 352.37 33.42&#10;  Q 361.84 33.13 369.88 36.09&#10;  Q 374.83 37.91 378.45 41.45&#10;  C 383.75 46.62 387.82 51.18 389.37 58.59&#10;  Q 391.22 67.44 391.28 71.05&#10;  Q 391.33 73.77 390.66 77.53&#10;  Q 390.07 80.88 389.32 84.44&#10;  C 387.35 93.72 381.88 102.95 370.86 101.08&#10;  C 365.64 100.19 367.46 92.99 369.15 89.99&#10;  C 370.99 86.72 373.15 82.91 373.46 79.14&#10;  C 374.27 69.31 373.54 56.54 362.24 52.84&#10;  Q 355.57 50.66 348.52 52.06&#10;  Q 344.68 52.81 342.57 55.04&#10;  Z"/>
<path fill="#000000" d="&#10;  M 170.47 221.11&#10;  Q 171.83 220.74 170.54 220.16&#10;  Q 168.65 219.32 166.90 220.40&#10;  Q 166.19 220.84 166.25 220.01&#10;  L 166.29 219.48&#10;  A 0.78 0.78 0.0 0 1 166.83 218.80&#10;  Q 170.75 217.56 171.67 220.43&#10;  Q 171.82 220.89 172.23 221.15&#10;  Q 173.35 221.88 174.68 222.48&#10;  C 176.46 223.29 179.33 226.64 179.48 228.59&#10;  Q 180.04 235.59 179.35 238.52&#10;  Q 178.05 244.00 177.17 249.53&#10;  C 176.28 255.11 174.23 259.75 172.48 264.99&#10;  C 171.69 267.35 171.42 269.53 170.89 271.90&#10;  Q 170.59 273.22 170.80 274.66&#10;  C 171.52 279.67 172.88 285.66 176.08 289.66&#10;  C 178.36 292.51 180.17 295.47 183.86 296.67&#10;  C 186.97 297.67 189.96 296.48 193.08 296.42&#10;  A 6.14 6.13 -59.3 0 0 195.78 295.73&#10;  Q 201.40 292.82 207.45 289.96&#10;  C 214.18 286.78 216.85 280.83 216.62 273.54&#10;  C 216.40 266.57 209.92 261.25 205.81 256.39&#10;  Q 202.47 252.45 199.64 246.36&#10;  C 198.23 243.31 198.40 239.91 197.96 236.66&#10;  C 197.73 234.93 198.43 233.47 198.53 231.77&#10;  C 198.69 229.32 200.80 227.75 202.88 227.13&#10;  Q 209.37 225.20 215.67 223.81&#10;  Q 218.23 223.24 231.84 223.50&#10;  C 233.06 223.53 234.15 224.24 235.35 224.32&#10;  C 243.02 224.83 253.13 227.28 253.58 236.57&#10;  Q 253.97 244.60 248.26 251.81&#10;  C 245.19 255.68 243.46 260.03 239.31 263.03&#10;  Q 236.75 264.89 235.79 267.00&#10;  C 234.68 269.44 233.07 271.58 233.55 274.43&#10;  C 234.55 280.35 236.45 285.78 241.83 289.00&#10;  Q 247.17 292.21 253.45 295.38&#10;  C 257.03 297.20 263.88 296.71 267.85 296.23&#10;  C 270.80 295.87 274.73 291.72 275.70 289.03&#10;  C 277.14 285.05 279.29 280.91 279.60 276.67&#10;  C 279.92 272.30 279.71 268.34 278.17 264.21&#10;  Q 274.76 255.08 272.96 248.19&#10;  Q 271.34 241.99 271.24 232.87&#10;  C 271.16 226.03 274.81 221.16 282.13 221.30&#10;  Q 286.85 221.39 288.61 225.30&#10;  Q 290.49 229.45 290.05 233.94&#10;  Q 289.85 235.91 290.16 237.85&#10;  Q 292.31 251.58 297.04 265.81&#10;  Q 298.96 271.56 298.18 277.64&#10;  Q 297.72 281.26 294.19 289.34&#10;  Q 292.90 292.29 291.97 295.65&#10;  Q 290.54 300.78 288.63 302.99&#10;  Q 284.51 307.75 280.59 312.84&#10;  C 278.77 315.20 276.49 317.29 274.11 319.04&#10;  Q 266.38 324.70 259.09 329.27&#10;  Q 254.00 332.47 246.39 335.48&#10;  Q 241.43 337.45 236.79 337.91&#10;  Q 232.44 338.34 228.29 338.99&#10;  Q 224.87 339.52 221.49 339.11&#10;  Q 213.31 338.12 205.95 335.97&#10;  Q 202.35 334.92 197.84 332.42&#10;  C 193.54 330.03 189.25 328.69 184.74 325.46&#10;  C 180.41 322.36 176.52 318.58 172.70 314.90&#10;  C 169.24 311.56 167.02 307.16 163.83 303.51&#10;  C 160.49 299.71 156.22 293.24 155.42 287.74&#10;  C 154.97 284.60 153.65 281.73 153.36 278.57&#10;  C 153.00 274.67 151.84 271.06 153.13 267.14&#10;  Q 158.78 250.02 161.01 232.92&#10;  C 161.55 228.77 163.25 225.20 165.24 221.61&#10;  Q 165.68 220.80 166.56 221.09&#10;  Q 168.39 221.69 170.47 221.11&#10;  Z&#10;  M 251.40 312.63&#10;  C 245.08 311.45 239.24 308.82 233.25 306.12&#10;  C 230.38 304.82 228.41 303.08 226.31 300.92&#10;  A 1.77 1.77 0.0 0 0 223.82 300.89&#10;  C 222.57 302.09 221.35 303.29 219.78 304.10&#10;  C 216.48 305.79 213.67 307.49 210.02 308.73&#10;  Q 204.66 310.56 198.97 312.57&#10;  A 0.49 0.49 0.0 0 0 198.86 313.43&#10;  C 200.50 314.57 202.17 315.81 204.10 316.42&#10;  C 211.94 318.88 219.63 322.05 227.91 321.38&#10;  Q 239.99 320.41 251.59 313.77&#10;  Q 253.05 312.94 251.40 312.63&#10;  Z"/>
</svg>